<svg width="300" height="300" viewBox="0 0 300 300" fill="none" xmlns="http://www.w3.org/2000/svg">
<circle cx="150" cy="150" r="150" fill="white"/>
<path d="M152 57.5L219 229H192.5L178 191.75H96L81.75 229H58L125 57.5H152ZM138 87H136.5L104.75 169.5H169.5L138 87Z" fill="#04A759"/>
<path d="M227.7 151.1L191.1 254H175.35L138.75 151.1H154.5L183.45 234.05H184.35L213.45 151.1H227.7Z" fill="#092C4C"/>
<path d="M205.96 71.24C208.84 71.24 211.28 71.82 213.28 72.98C215.28 74.14 216.78 75.64 217.78 77.48C218.78 79.32 219.28 81.26 219.28 83.3C219.28 86.18 218.7 88.54 217.54 90.38C216.38 92.22 214.52 94.12 211.96 96.08L200.5 104.84C199.58 105.48 198.86 106.06 198.34 106.58C197.86 107.06 197.62 107.42 197.62 107.66H219.46V113H191.2V111.56C191.2 109.52 191.68 107.58 192.64 105.74C193.64 103.86 195.02 102.26 196.78 100.94L208.72 91.94C210.4 90.58 211.6 89.24 212.32 87.92C213.04 86.6 213.4 85.14 213.4 83.54C213.4 82.34 213.1 81.22 212.5 80.18C211.9 79.1 211.02 78.24 209.86 77.6C208.7 76.92 207.3 76.58 205.66 76.58C203.98 76.58 202.48 76.94 201.16 77.66C199.88 78.38 198.88 79.34 198.16 80.54C197.44 81.74 197.08 83.06 197.08 84.5V85.34C197.08 85.66 197.1 85.9 197.14 86.06H191.26L191.2 85.46V84.98C191.2 82.66 191.72 80.46 192.76 78.38C193.8 76.26 195.42 74.54 197.62 73.22C199.82 71.9 202.6 71.24 205.96 71.24Z" fill="#092C4C"/>
</svg>
